# File created by Blade
# Date/Time:  Wed Jan 21 17:05:57 2015
# Frame Rate: 120.000 fps
#------------------------------------------------------
:FULLY-SPECIFIED
:DEGREES
431
root 19.795219 11.246255 -13.838390 -179.948838 4.327561 -183.957559
Spine 67.540047 6.998540 -5.404121
Head -15.349967 -0.254450 5.517436
LeftShoulder 16.650139 -59.760425 26.712659
LeftArm 55.974836 8.183212 -7.509099
LeftForeArm 11.021772 -0.000000 -2.776417
LeftHand -4.771521 0.000000 17.224209
LeftHandThumb1 -26.253704 0.000000 33.147579
RightShoulder 7.779393 18.670966 -33.245958
RightArm 55.855829 36.305039 15.148116
RightForeArm -34.762704 -0.000000 5.827486
RightHand -10.204645 -0.000000 -9.023986
RightHandThumb1 -24.326973 -0.000000 -32.862282
LeftUpLeg -103.361667 30.406111 -7.361478
LeftLeg 139.685621 -0.000000 -0.000000
LeftFoot -56.398620 19.166355 -12.417936
LeftToeBase 28.426226 -0.000000 -0.000000
RightUpLeg -107.694011 -17.732899 3.069325
RightLeg 140.508952 -0.000000 -0.000000
RightFoot -55.812897 -26.249544 18.755930
RightToeBase 25.126393 -0.000000 -0.000000
432
root 19.807106 11.521053 -13.797723 -179.801342 4.246962 -183.970911
Spine 67.445605 6.859736 -5.387492
Head -15.749047 -0.245587 5.411800
LeftShoulder 16.260072 -59.713552 26.930671
LeftArm 55.895171 8.041483 -7.297722
LeftForeArm 11.257275 -0.000000 -2.812758
LeftHand -4.885394 -0.000000 17.170782
LeftHandThumb1 -26.253704 0.000000 33.147579
RightShoulder 7.666913 18.462348 -33.248615
RightArm 55.524956 36.457830 14.669224
RightForeArm -34.771079 -0.000000 5.750627
RightHand -10.234100 0.000000 -8.986205
RightHandThumb1 -24.326973 -0.000000 -32.862282
LeftUpLeg -102.595863 30.339937 -7.478026
LeftLeg 138.774891 -0.000000 -0.000000
LeftFoot -56.371720 18.998475 -12.530434
LeftToeBase 28.451191 -0.000000 -0.000000
RightUpLeg -106.776696 -17.657703 3.047322
RightLeg 139.653134 -0.000000 -0.000000
RightFoot -55.945828 -26.190010 19.068666
RightToeBase 24.715994 -0.000000 -0.000000
433
root 19.813683 11.811457 -13.756003 -179.702140 4.125137 -183.974198
Spine 67.467604 6.597213 -5.412178
Head -16.333271 -0.139399 5.187097
LeftShoulder 15.541818 -59.436365 27.385373
LeftArm 55.818546 7.740017 -6.900634
LeftForeArm 11.345851 0.000000 -2.797425
LeftHand -4.811395 0.000000 17.079092
LeftHandThumb1 -26.253704 0.000000 33.147579
RightShoulder 7.553245 18.424173 -33.323530
RightArm 55.206595 36.499576 14.210926
RightForeArm -34.969276 -0.000000 5.569356
RightHand -10.229821 0.000000 -9.027001
RightHandThumb1 -24.326973 -0.000000 -32.862282
LeftUpLeg -101.708012 30.243348 -7.571488
LeftLeg 137.791046 -0.000000 -0.000000
LeftFoot -56.381580 18.967329 -12.519300
LeftToeBase 28.409954 -0.000000 -0.000000
RightUpLeg -105.752208 -17.683548 3.017941
RightLeg 138.731002 -0.000000 -0.000000
RightFoot -56.139867 -26.146309 19.352957
RightToeBase 24.555209 -0.000000 -0.000000
434
root 19.828268 12.104825 -13.708869 -179.534483 4.128387 -184.038438
Spine 67.324181 6.453738 -5.692116
Head -16.805712 0.115382 5.084860
LeftShoulder 14.725461 -59.274728 27.972833
LeftArm 55.651013 7.687027 -6.616216
LeftForeArm 11.826717 -0.000000 -2.793661
LeftHand -4.930283 -0.000000 17.100378
LeftHandThumb1 -26.253704 0.000000 33.147579
RightShoulder 7.596125 18.503257 -33.262906
RightArm 54.999543 36.588507 13.993165
RightForeArm -34.910193 -0.000000 5.533403
RightHand -10.281059 -0.000000 -8.824256
RightHandThumb1 -24.326973 -0.000000 -32.862282
LeftUpLeg -100.897238 30.323193 -7.743844
LeftLeg 136.768955 -0.000000 -0.000000
LeftFoot -56.336255 18.937455 -12.372410
LeftToeBase 28.404338 -0.000000 -0.000000
RightUpLeg -104.832488 -17.489250 2.954145
RightLeg 137.771179 -0.000000 -0.000000
RightFoot -56.242184 -26.370724 19.547882
RightToeBase 24.306654 -0.000000 -0.000000
435
root 19.843068 12.406850 -13.665183 -179.367915 4.145205 -184.012861
Spine 67.179062 6.388475 -5.596191
Head -17.209338 0.104803 4.889235
LeftShoulder 14.461364 -59.120735 28.020506
LeftArm 55.464197 7.522820 -6.355250
LeftForeArm 12.150360 -0.000000 -2.790648
LeftHand -4.828027 0.000000 17.165025
LeftHandThumb1 -26.253704 0.000000 33.147579
RightShoulder 7.468956 18.589430 -33.265409
RightArm 54.828127 36.579983 13.910795
RightForeArm -35.193298 -0.000000 5.402916
RightHand -10.210342 -0.000000 -8.560885
RightHandThumb1 -24.326973 -0.000000 -32.862282
LeftUpLeg -100.063021 30.451001 -7.815262
LeftLeg 135.738867 -0.000000 -0.000000
LeftFoot -56.302770 18.837022 -12.201098
LeftToeBase 28.442019 -0.000000 -0.000000
RightUpLeg -103.940061 -17.341212 3.070174
RightLeg 136.782210 -0.000000 -0.000000
RightFoot -56.331460 -26.368170 19.880935
RightToeBase 24.506495 -0.000000 -0.000000
436
root 19.859250 12.712674 -13.620560 -179.173372 4.193939 -183.976191
Spine 67.004615 6.375417 -5.401459
Head -17.684672 0.031603 4.629276
LeftShoulder 14.407569 -59.001010 27.866614
LeftArm 55.291048 7.442212 -5.986119
LeftForeArm 12.517558 -0.000000 -2.981019
LeftHand -4.473026 -0.000000 17.408664
LeftHandThumb1 -26.253704 0.000000 33.147579
RightShoulder 7.216942 18.573178 -33.314468
RightArm 54.783156 36.656704 14.005645
RightForeArm -35.598663 -0.000000 5.302837
RightHand -10.317467 -0.000000 -8.384450
RightHandThumb1 -24.326973 -0.000000 -32.862282
LeftUpLeg -99.281104 30.643411 -7.907238
LeftLeg 134.692227 -0.000000 -0.000000
LeftFoot -56.251090 18.729018 -11.987672
LeftToeBase 28.513067 -0.000000 -0.000000
RightUpLeg -103.033686 -17.162961 3.163157
RightLeg 135.762716 -0.000000 -0.000000
RightFoot -56.347689 -26.510794 19.979563
RightToeBase 24.379242 -0.000000 -0.000000
437
root 19.872333 13.026234 -13.575926 -178.977290 4.280976 -183.956398
Spine 66.785683 6.345103 -5.304646
Head -18.114988 0.044213 4.323513
LeftShoulder 14.110156 -58.870792 27.856294
LeftArm 55.072439 7.322496 -5.842238
LeftForeArm 13.105885 -0.000000 -2.904933
LeftHand -4.669484 0.000000 17.451781
LeftHandThumb1 -26.253704 0.000000 33.147579
RightShoulder 7.112070 18.691485 -33.337465
RightArm 54.625141 36.618676 14.013233
RightForeArm -35.911415 -0.000000 5.191906
RightHand -10.315746 0.000000 -8.406778
RightHandThumb1 -24.326973 -0.000000 -32.862282
LeftUpLeg -98.517217 30.868867 -8.044025
LeftLeg 133.626527 -0.000000 -0.000000
LeftFoot -56.161353 18.580978 -11.849286
LeftToeBase 28.526535 -0.000000 -0.000000
RightUpLeg -102.117543 -16.979708 3.258873
RightLeg 134.685460 -0.000000 -0.000000
RightFoot -56.429702 -26.687182 20.049747
RightToeBase 24.440920 -0.000000 -0.000000
438
root 19.880391 13.336528 -13.530452 -178.728041 4.361504 -183.987882
Spine 66.448523 6.304649 -5.224438
Head -18.489802 -0.020767 3.953409
LeftShoulder 13.966885 -58.674644 27.654989
LeftArm 54.918067 7.235126 -5.569091
LeftForeArm 13.465261 -0.000000 -2.951071
LeftHand -4.707055 -0.000000 17.475533
LeftHandThumb1 -26.253704 0.000000 33.147579
RightShoulder 7.018504 18.650443 -33.361715
RightArm 54.404151 36.611882 13.889089
RightForeArm -36.107324 -0.000000 5.136753
RightHand -10.324384 0.000000 -8.343883
RightHandThumb1 -24.326973 -0.000000 -32.862282
LeftUpLeg -97.824833 31.075352 -8.284838
LeftLeg 132.541340 -0.000000 -0.000000
LeftFoot -56.086383 18.516424 -11.633432
LeftToeBase 28.588743 -0.000000 -0.000000
RightUpLeg -101.312102 -16.871518 3.328576
RightLeg 133.620586 -0.000000 -0.000000
RightFoot -56.459631 -26.769010 20.071704
RightToeBase 24.362653 -0.000000 -0.000000
439
root 19.891591 13.657274 -13.490880 -178.563750 4.455877 -183.950411
Spine 66.214697 6.262026 -5.029924
Head -18.899652 -0.034916 3.517150
LeftShoulder 13.852466 -58.235917 27.411181
LeftArm 54.730833 7.089518 -4.953473
LeftForeArm 13.505034 -0.000000 -2.990712
LeftHand -4.342334 -0.000000 17.421654
LeftHandThumb1 -26.253704 0.000000 33.147579
RightShoulder 6.853389 18.718891 -33.492749
RightArm 54.316168 36.600881 14.093155
RightForeArm -36.501572 -0.000000 5.069544
RightHand -10.369363 -0.000000 -8.283596
RightHandThumb1 -24.326973 -0.000000 -32.862282
LeftUpLeg -97.019562 31.312958 -8.384122
LeftLeg 131.451818 -0.000000 -0.000000
LeftFoot -55.963178 18.346379 -11.499014
LeftToeBase 28.546997 -0.000000 -0.000000
RightUpLeg -100.308206 -16.738574 3.354484
RightLeg 132.511025 -0.000000 -0.000000
RightFoot -56.522475 -26.820993 20.082210
RightToeBase 24.622633 -0.000000 -0.000000
440
root 19.889756 13.966247 -13.448109 -178.297611 4.527463 -184.128193
Spine 65.764761 6.254259 -5.069249
Head -19.213155 -0.112698 3.187692
LeftShoulder 13.769601 -57.855988 27.170822
LeftArm 54.607379 6.943486 -4.590912
LeftForeArm 13.789027 -0.000000 -3.107430
LeftHand -4.336683 0.000000 17.362454
LeftHandThumb1 -26.253704 0.000000 33.147579
RightShoulder 6.670349 18.641552 -33.528090
RightArm 54.261760 36.604070 14.243378
RightForeArm -36.872341 -0.000000 5.045533
RightHand -10.352830 -0.000000 -8.186391
RightHandThumb1 -24.326973 -0.000000 -32.862282
LeftUpLeg -96.402790 31.510258 -8.855174
LeftLeg 130.346196 -0.000000 -0.000000
LeftFoot -55.830386 18.242048 -11.342492
LeftToeBase 28.543188 -0.000000 -0.000000
RightUpLeg -99.538863 -16.651262 3.151746
RightLeg 131.454362 -0.000000 -0.000000
RightFoot -56.535721 -26.925253 19.885768
RightToeBase 24.786080 -0.000000 -0.000000
441
root 19.855426 14.275068 -13.409954 -178.047802 4.311539 -184.446091
Spine 65.283809 5.857511 -5.283017
Head -19.445272 -0.161566 2.813677
LeftShoulder 13.486307 -57.471501 27.136600
LeftArm 54.337574 6.880993 -4.512501
LeftForeArm 14.642777 -0.000000 -3.247640
LeftHand -4.325613 -0.000000 17.844773
LeftHandThumb1 -26.253704 0.000000 33.147579
RightShoulder 6.615732 18.387581 -33.536063
RightArm 54.072296 36.677573 14.070390
RightForeArm -36.951636 0.000000 5.031988
RightHand -10.255629 -0.000000 -7.896745
RightHandThumb1 -24.326973 -0.000000 -32.862282
LeftUpLeg -95.711951 31.237672 -9.485088
LeftLeg 129.204596 -0.000000 -0.000000
LeftFoot -55.687511 18.292750 -11.209866
LeftToeBase 28.454153 -0.000000 -0.000000
RightUpLeg -98.835575 -17.053272 2.775300
RightLeg 130.461581 -0.000000 -0.000000
RightFoot -56.465716 -26.768684 19.795105
RightToeBase 24.993421 -0.000000 -0.000000
